<svg width="100.000000" height="100.000000" viewBox="0 0 100 100" fill="none" xmlns="http://www.w3.org/2000/svg" xmlns:xlink="http://www.w3.org/1999/xlink">
	<desc>
			Created with Pixso.
	</desc>
	<defs>
		<clipPath id="clip1_19">
			<rect id="fi-ss-heart" rx="0.000000" width="28.000000" height="28.000000" transform="translate(36.500000 36.500000)" fill="white" fill-opacity="0"/>
		</clipPath>
		<linearGradient x1="0.000000" y1="0.000015" x2="99.999985" y2="100.000038" id="paint_linear_1_17_0" gradientUnits="userSpaceOnUse">
			<stop stop-color="#4000F4"/>
			<stop offset="0.224829" stop-color="#603AED"/>
			<stop offset="0.469313" stop-color="#7C6EE6"/>
			<stop offset="0.657091" stop-color="#979FE1"/>
			<stop offset="0.776840" stop-color="#A2B3DE"/>
			<stop offset="0.889332" stop-color="#ADC8DC"/>
			<stop offset="1.000000" stop-color="#C0ECD7"/>
		</linearGradient>
	</defs>
	<path id="Rectangle 2" d="M4 0L100 0L100 100L4 100C1.79 100 0 98.2 0 96L0 4C0 1.79 1.79 0 4 0Z" fill="url(#paint_linear_1_17_0)" fill-opacity="1.000000" fill-rule="evenodd"/>
	<rect id="fi-ss-heart" rx="0.000000" width="28.000000" height="28.000000" transform="translate(36.500000 36.500000)" fill="#FFFFFF" fill-opacity="0"/>
	<g clip-path="url(#clip1_19)">
		<path id="Vector" d="M57.14 37.1C55.78 37.12 54.45 37.5 53.28 38.2C52.12 38.9 51.15 39.9 50.5 41.09C49.84 39.9 48.87 38.9 47.71 38.2C46.54 37.5 45.21 37.12 43.85 37.1C41.68 37.2 39.64 38.15 38.17 39.74C36.69 41.34 35.91 43.45 36 45.62C36 53.81 49.23 63.26 49.8 63.66L50.5 64.16L51.19 63.66C51.76 63.27 65 53.81 65 45.62C65.08 43.45 64.3 41.34 62.83 39.74C61.35 38.15 59.31 37.2 57.14 37.1Z" fill="#FFFFFF" fill-opacity="1.000000" fill-rule="nonzero"/>
	</g>
</svg>
